<svg xmlns="http://www.w3.org/2000/svg" width="584" height="65" viewBox="0 0 584 65" fill="none"><path d="M562.246 34.7518L556 14.2227H559.574L562.822 26.0724L564.033 30.4798C564.084 30.2607 564.437 28.8495 565.09 26.2463L568.338 14.2227H571.893L574.949 26.1304L575.967 30.0545L577.139 26.0917L580.637 14.2227H584L577.62 34.7518H574.026L570.778 22.4575L569.99 18.9587L565.859 34.7518H562.246Z" fill="white"></path><path d="M535 23.9751C535 20.1559 536.044 17.3271 538.132 15.4888C539.876 13.9611 542.002 13.1973 544.51 13.1973C547.297 13.1973 549.576 14.1294 551.346 15.9937C553.115 17.845 554 20.4084 554 23.6838C554 26.3378 553.605 28.4286 552.816 29.9563C552.04 31.471 550.9 32.6491 549.398 33.4906C547.909 34.3322 546.279 34.7529 544.51 34.7529C541.671 34.7529 539.373 33.8273 537.616 31.9759C535.872 30.1246 535 27.4577 535 23.9751ZM538.533 23.9751C538.533 26.6161 539.099 28.5969 540.232 29.9175C541.365 31.225 542.791 31.8788 544.51 31.8788C546.215 31.8788 547.635 31.2186 548.768 29.898C549.901 28.5775 550.467 26.5644 550.467 23.8586C550.467 21.3081 549.894 19.3791 548.749 18.0716C547.616 16.751 546.203 16.0908 544.51 16.0908C542.791 16.0908 541.365 16.7446 540.232 18.0521C539.099 19.3597 538.533 21.334 538.533 23.9751Z" fill="white"></path><path d="M523 34.7529V13.6736H526.369V16.8693C527.229 15.374 528.019 14.3882 528.74 13.9118C529.475 13.4354 530.279 13.1973 531.153 13.1973C532.414 13.1973 533.697 13.581 535 14.3485L533.711 17.6632C532.795 17.1472 531.88 16.8891 530.965 16.8891C530.147 16.8891 529.412 17.1273 528.761 17.6037C528.109 18.0668 527.645 18.7152 527.367 19.5488C526.951 20.8192 526.744 22.2086 526.744 23.7171V34.7529H523Z" fill="white"></path><path d="M510 34.7529V13.6736H513.088V16.8693C513.876 15.374 514.601 14.3882 515.262 13.9118C515.935 13.4354 516.672 13.1973 517.473 13.1973C518.63 13.1973 519.805 13.581 521 14.3485L519.818 17.6632C518.979 17.1472 518.14 16.8891 517.302 16.8891C516.552 16.8891 515.878 17.1273 515.281 17.6037C514.683 18.0668 514.258 18.7152 514.003 19.5488C513.622 20.8192 513.432 22.2086 513.432 23.7171V34.7529H510Z" fill="white"></path><path d="M487 23.9751C487 20.1559 488.044 17.3271 490.132 15.4888C491.876 13.9611 494.002 13.1973 496.51 13.1973C499.297 13.1973 501.576 14.1294 503.346 15.9937C505.115 17.845 506 20.4084 506 23.6838C506 26.3378 505.605 28.4286 504.816 29.9563C504.04 31.471 502.9 32.6491 501.398 33.4906C499.909 34.3322 498.279 34.7529 496.51 34.7529C493.671 34.7529 491.373 33.8273 489.616 31.9759C487.872 30.1246 487 27.4577 487 23.9751ZM490.533 23.9751C490.533 26.6161 491.099 28.5969 492.232 29.9175C493.365 31.225 494.791 31.8788 496.51 31.8788C498.215 31.8788 499.635 31.2186 500.768 29.898C501.901 28.5775 502.467 26.5644 502.467 23.8586C502.467 21.3081 501.894 19.3791 500.749 18.0716C499.616 16.751 498.203 16.0908 496.51 16.0908C494.791 16.0908 493.365 16.7446 492.232 18.0521C491.099 19.3597 490.533 21.334 490.533 23.9751Z" fill="white"></path><path d="M456 34.7529V13.6736H459.021V16.6311C459.646 15.599 460.478 14.7719 461.516 14.15C462.555 13.5148 463.737 13.1973 465.063 13.1973C466.539 13.1973 467.746 13.5215 468.684 14.1699C469.634 14.8182 470.304 15.7247 470.691 16.8891C472.268 14.4279 474.319 13.1973 476.846 13.1973C478.822 13.1973 480.342 13.7795 481.405 14.9439C482.468 16.0952 483 17.8749 483 20.2832V34.7529H479.641V21.4742C479.641 20.0451 479.529 19.0195 479.304 18.3976C479.091 17.7625 478.697 17.253 478.122 16.8693C477.546 16.4855 476.871 16.2937 476.095 16.2937C474.694 16.2937 473.531 16.7899 472.605 17.7823C471.68 18.7615 471.217 20.3362 471.217 22.5063V34.7529H467.839V21.0573C467.839 19.4694 467.564 18.2785 467.014 17.4846C466.464 16.6906 465.563 16.2937 464.312 16.2937C463.361 16.2937 462.479 16.5583 461.666 17.0876C460.866 17.6169 460.284 18.391 459.921 19.4099C459.559 20.4288 459.377 21.8976 459.377 23.8163V34.7529H456Z" fill="white"></path><path d="M432 23.9751C432 20.1559 433.099 17.3271 435.296 15.4888C437.132 13.9611 439.37 13.1973 442.01 13.1973C444.945 13.1973 447.343 14.1294 449.206 15.9937C451.069 17.845 452 20.4084 452 23.6838C452 26.3378 451.585 28.4286 450.754 29.9563C449.936 31.471 448.737 32.6491 447.156 33.4906C445.588 34.3322 443.873 34.7529 442.01 34.7529C439.022 34.7529 436.603 33.8273 434.754 31.9759C432.918 30.1246 432 27.4577 432 23.9751ZM435.719 23.9751C435.719 26.6161 436.315 28.5969 437.508 29.9175C438.7 31.225 440.201 31.8788 442.01 31.8788C443.806 31.8788 445.3 31.2186 446.492 29.898C447.685 28.5775 448.281 26.5644 448.281 23.8586C448.281 21.3081 447.678 19.3791 446.472 18.0716C445.28 16.751 443.792 16.0908 442.01 16.0908C440.201 16.0908 438.7 16.7446 437.508 18.0521C436.315 19.3597 435.719 21.334 435.719 23.9751Z" fill="white"></path><path d="M430.498 31.2767L431 34.4348C430.022 34.6467 429.147 34.7526 428.375 34.7526C427.113 34.7526 426.135 34.5473 425.44 34.1369C424.745 33.7264 424.256 33.1901 423.973 32.528C423.69 31.8527 423.548 30.4424 423.548 28.2973V16.1614H421V13.3807H423.548V8.15686L427.004 6.01172V13.3807H430.498V16.1614H427.004V28.4959C427.004 29.5155 427.062 30.171 427.178 30.4623C427.306 30.7536 427.506 30.9854 427.776 31.1575C428.059 31.3296 428.458 31.4157 428.973 31.4157C429.359 31.4157 429.867 31.3694 430.498 31.2767Z" fill="white"></path><path d="M389 23.9751C389 20.1559 390.044 17.3271 392.132 15.4888C393.876 13.9611 396.002 13.1973 398.51 13.1973C401.297 13.1973 403.576 14.1294 405.346 15.9937C407.115 17.845 408 20.4084 408 23.6838C408 26.3378 407.605 28.4286 406.816 29.9563C406.04 31.471 404.9 32.6491 403.398 33.4906C401.909 34.3322 400.279 34.7529 398.51 34.7529C395.671 34.7529 393.373 33.8273 391.616 31.9759C389.872 30.1246 389 27.4577 389 23.9751ZM392.533 23.9751C392.533 26.6161 393.099 28.5969 394.232 29.9175C395.365 31.225 396.791 31.8788 398.51 31.8788C400.215 31.8788 401.635 31.2186 402.768 29.898C403.901 28.5775 404.467 26.5644 404.467 23.8586C404.467 21.3081 403.894 19.3791 402.749 18.0716C401.616 16.751 400.203 16.0908 398.51 16.0908C396.791 16.0908 395.365 16.7446 394.232 18.0521C393.099 19.3597 392.533 21.334 392.533 23.9751Z" fill="white"></path><path d="M381 34.7526V6.01172H385V34.7526H381Z" fill="white"></path><path d="M372 34.7526V6.01172H376V34.7526H372Z" fill="white"></path><path d="M364.274 27.6454L367.884 28.092C367.314 30.2023 366.26 31.84 364.72 33.0052C363.18 34.1703 361.214 34.7529 358.82 34.7529C355.806 34.7529 353.412 33.8273 351.639 31.9759C349.88 30.1117 349 27.503 349 24.1499C349 20.6802 349.893 17.9874 351.678 16.0714C353.464 14.1553 355.78 13.1973 358.626 13.1973C361.382 13.1973 363.633 14.1359 365.38 16.0131C367.127 17.8903 368 20.5314 368 23.9363C368 24.1434 367.994 24.4541 367.981 24.8684H352.61C352.739 27.134 353.38 28.8688 354.531 30.0728C355.683 31.2768 357.119 31.8788 358.84 31.8788C360.121 31.8788 361.214 31.5422 362.12 30.869C363.025 30.1958 363.743 29.1213 364.274 27.6454ZM352.804 21.9943H364.313C364.157 20.2595 363.717 18.9584 362.993 18.091C361.88 16.7446 360.438 16.0714 358.665 16.0714C357.061 16.0714 355.709 16.6086 354.609 17.6832C353.522 18.7577 352.92 20.1948 352.804 21.9943Z" fill="white"></path><path d="M323 34.7526V6.01172H326.711V17.8139H341.289V6.01172H345V34.7526H341.289V21.2056H326.711V34.7526H323Z" fill="white"></path><path d="M449 57.3337C449 54.7875 449.659 52.9017 450.978 51.6761C452.079 50.6577 453.422 50.1484 455.006 50.1484C456.767 50.1484 458.206 50.7699 459.324 52.0127C460.441 53.2469 461 54.9558 461 57.1395C461 58.9088 460.751 60.3027 460.252 61.3211C459.762 62.3309 459.042 63.1164 458.093 63.6774C457.153 64.2384 456.124 64.5189 455.006 64.5189C453.213 64.5189 451.762 63.9018 450.652 62.6675C449.551 61.4333 449 59.6554 449 57.3337ZM451.231 57.3337C451.231 59.0944 451.589 60.4149 452.305 61.2952C453.02 62.167 453.921 62.6028 455.006 62.6028C456.083 62.6028 456.98 62.1626 457.695 61.2823C458.411 60.4019 458.769 59.0598 458.769 57.256C458.769 55.5557 458.407 54.2697 457.683 53.398C456.968 52.5176 456.075 52.0774 455.006 52.0774C453.921 52.0774 453.02 52.5133 452.305 53.385C451.589 54.2567 451.231 55.573 451.231 57.3337Z" fill="white"></path><path d="M445.895 59.172L448 59.4698C447.77 61.0493 447.179 62.2878 446.228 63.1854C445.285 64.0744 444.123 64.5189 442.744 64.5189C441.015 64.5189 439.624 63.9061 438.57 62.6805C437.523 61.4463 437 59.6813 437 57.3854C437 55.9009 437.226 54.602 437.678 53.4886C438.13 52.3752 438.815 51.5423 439.735 50.9899C440.663 50.4289 441.67 50.1484 442.756 50.1484C444.127 50.1484 445.249 50.5282 446.121 51.2877C446.993 52.0386 447.552 53.1088 447.798 54.4984L445.717 54.848C445.519 53.9245 445.166 53.2297 444.658 52.7636C444.159 52.2975 443.552 52.0645 442.839 52.0645C441.761 52.0645 440.885 52.4874 440.211 53.3332C439.537 54.1704 439.2 55.4996 439.2 57.3207C439.2 59.1677 439.525 60.5098 440.175 61.347C440.825 62.1842 441.674 62.6028 442.72 62.6028C443.56 62.6028 444.262 62.3223 444.825 61.7613C445.388 61.2003 445.745 60.3372 445.895 59.172Z" fill="white"></path><path d="M432 48.5069V46.043H434V48.5069H432ZM432 63.4928V50.8518H434V63.4928H432Z" fill="white"></path><path d="M418 63.4924L422.684 56.5566L418.35 50.1484H421.066L423.034 53.2771C423.404 53.8719 423.702 54.3703 423.928 54.7723C424.282 54.2195 424.608 53.7294 424.905 53.3022L427.066 50.1484H429.662L425.231 56.4309L430 63.4924H427.332L424.7 59.346L424 58.2277L420.632 63.4924H418Z" fill="white"></path><path d="M414.647 60.005L416.926 60.2887C416.567 61.629 415.901 62.6691 414.928 63.4092C413.956 64.1492 412.714 64.5192 411.202 64.5192C409.298 64.5192 407.787 63.9313 406.667 62.7555C405.556 61.5714 405 59.9146 405 57.7849C405 55.5812 405.564 53.8709 406.692 52.654C407.819 51.437 409.282 50.8285 411.08 50.8285C412.82 50.8285 414.242 51.4247 415.345 52.617C416.448 53.8093 417 55.4867 417 57.6492C417 57.7808 416.996 57.9781 416.988 58.2413H407.28C407.362 59.6802 407.766 60.7821 408.493 61.5468C409.221 62.3115 410.128 62.6938 411.215 62.6938C412.023 62.6938 412.714 62.48 413.286 62.0524C413.858 61.6249 414.312 60.9424 414.647 60.005ZM407.402 56.4158H414.671C414.573 55.314 414.295 54.4876 413.838 53.9367C413.135 53.0815 412.224 52.654 411.104 52.654C410.091 52.654 409.237 52.9952 408.542 53.6777C407.856 54.3602 407.476 55.2729 407.402 56.4158ZM409.78 49.4965L411.411 46.043H414.303L411.607 49.4965H409.78Z" fill="white"></path><path d="M385 63.4928V46.043H388.548L392.765 58.3983C393.154 59.5489 393.437 60.4099 393.615 60.9812C393.818 60.3464 394.134 59.414 394.563 58.184L398.828 46.043H402V63.4928H399.728V48.8878L394.551 63.4928H392.425L387.272 48.6378V63.4928H385Z" fill="white"></path><path d="M364 57.3337C364 54.7875 364.659 52.9017 365.978 51.6761C367.079 50.6577 368.422 50.1484 370.006 50.1484C371.767 50.1484 373.206 50.7699 374.324 52.0127C375.441 53.2469 376 54.9558 376 57.1395C376 58.9088 375.751 60.3027 375.252 61.3211C374.762 62.3309 374.042 63.1164 373.093 63.6774C372.153 64.2384 371.124 64.5189 370.006 64.5189C368.213 64.5189 366.762 63.9018 365.652 62.6675C364.551 61.4333 364 59.6554 364 57.3337ZM366.231 57.3337C366.231 59.0944 366.589 60.4149 367.305 61.2952C368.02 62.167 368.921 62.6028 370.006 62.6028C371.083 62.6028 371.98 62.1626 372.695 61.2823C373.411 60.4019 373.769 59.0598 373.769 57.256C373.769 55.5557 373.407 54.2697 372.683 53.398C371.968 52.5176 371.075 52.0774 370.006 52.0774C368.921 52.0774 368.02 52.5133 367.305 53.385C366.589 54.2567 366.231 55.573 366.231 57.3337Z" fill="white"></path><path d="M359 63.4928V46.043H361V63.4928H359Z" fill="white"></path><path d="M354 63.4928V46.043H356V63.4928H354Z" fill="white"></path><path d="M348.647 59.7805L350.926 60.0783C350.567 61.4851 349.901 62.5769 348.928 63.3537C347.956 64.1305 346.714 64.5189 345.202 64.5189C343.298 64.5189 341.787 63.9018 340.667 62.6675C339.556 61.4247 339 59.6856 339 57.4502C339 55.1371 339.564 53.3419 340.692 52.0645C341.819 50.7871 343.282 50.1484 345.08 50.1484C346.82 50.1484 348.242 50.7742 349.345 52.0257C350.448 53.2771 351 55.0378 351 57.3078C351 57.4459 350.996 57.653 350.988 57.9292H341.28C341.362 59.4396 341.766 60.5961 342.493 61.3988C343.221 62.2015 344.128 62.6028 345.215 62.6028C346.023 62.6028 346.714 62.3784 347.286 61.9296C347.858 61.4808 348.312 60.7644 348.647 59.7805ZM341.402 56.0131H348.671C348.573 54.8566 348.295 53.9892 347.838 53.4109C347.135 52.5133 346.224 52.0645 345.104 52.0645C344.091 52.0645 343.237 52.4227 342.542 53.139C341.856 53.8554 341.476 54.8134 341.402 56.0131Z" fill="white"></path><path d="M323 63.4928V46.043H325.193V53.2086H333.807V46.043H336V63.4928H333.807V55.2678H325.193V63.4928H323Z" fill="white"></path><path d="M125.466 20.6358H159.731L164.601 20.6428C165.141 20.6428 165.486 20.35 165.486 19.862V13.2322C165.486 12.5839 165.286 12.4863 165.092 12.2841C164.815 12.0053 164.255 11.9844 162.56 11.9844H121.861C118.409 12.0192 115.67 12.5351 113.636 13.539C111.664 14.6056 107.652 17.192 107.652 25.223V37.0882C107.652 46.7783 111.602 48.3051 113.269 49.302C115.427 50.5429 118.292 51.1633 121.868 51.1633H153.919C157.372 51.1633 159.461 50.752 161.453 49.5808C163.674 48.2772 165.376 45.893 165.376 38.8171V30.8349C165.376 29.0711 165.646 27.9139 163.425 27.9139H133.2C132.335 27.9557 132.245 28.1788 132.183 28.5901V34.1463C132.183 34.5576 132.467 34.9061 133.2 34.9061H149.284C151.65 34.9061 151.65 34.8783 151.65 36.161V39.8837C151.65 40.8945 150.723 42.247 148.613 42.247H124.898C121.619 42.247 121.453 40.2462 121.453 38.824V24.1703C121.453 22.0231 122.124 20.6358 125.466 20.6358Z" fill="white"></path><path d="M232.668 11.8382H221.986C220.928 11.8033 219.911 12.7096 219.613 13.8668L212.661 35.6523C212.661 35.6523 212.584 36.0357 212.245 36.0357C211.907 36.0357 211.817 35.6313 211.817 35.6313L204.456 12.9745C204.214 12.1798 203.771 11.8033 202.671 11.8382H200.215C199.067 11.9079 198.804 12.3052 198.513 13.0233L191.173 35.6523C191.173 35.6523 191.09 36.0845 190.751 36.0845C190.412 36.0845 190.322 35.6244 190.322 35.6244L183.314 13.9714C183.114 12.8002 182.069 11.8382 181.301 11.8382H170.115C169.201 11.8382 168.945 12.2634 169.236 12.8839L181.446 49.7204C181.778 50.55 182.408 51.0659 183.314 51.1008H191.388C192.73 51.1705 193.525 50.6128 193.76 49.6159L200.589 29.7336C200.589 29.7336 200.782 28.7855 201.405 28.7855C202.028 28.7855 202.214 29.7266 202.214 29.7266L209.049 49.6647C209.292 50.5918 210.059 51.1286 211.353 51.0938H219.586C220.686 51.1286 221.384 50.5779 221.675 49.6089L233.643 12.8072C233.885 12.1519 233.546 11.8242 232.633 11.8242L232.668 11.8382Z" fill="white"></path><path d="M293.754 11.9634H282.789C281.779 11.9285 280.284 12.4583 279.828 13.4971L266.6 40.9781C266.6 40.9781 266.476 41.1454 266.268 41.1454C266.047 41.1454 265.867 40.9223 265.867 40.9223L252.737 13.6016C252.349 12.6675 250.876 11.8936 249.672 11.9634H238.748C237.593 11.9982 237.455 12.298 237.406 13.0927V49.4064C237.489 50.6055 238.361 51.1423 238.984 51.1423H251.063C251.637 51.0726 251.63 50.7449 251.727 50.1593V30.284C251.727 30.284 251.692 29.8658 251.976 29.7751C252.384 29.6496 252.64 30.2492 252.64 30.2492L261.848 49.8456C262.277 50.7101 262.581 51.1423 263.446 51.1423H269.015C269.88 51.1423 270.205 50.7101 270.689 49.8456L279.918 30.2143C279.918 30.2143 280.105 29.7751 280.499 29.8379C280.782 29.8867 280.817 30.2213 280.817 30.2213V50.2081C280.866 50.8286 280.879 51.1423 281.557 51.1423H293.526C294.051 51.0726 294.971 50.4173 295.034 49.3507V13.0927C295.082 12.2631 294.805 11.9634 293.754 11.9634Z" fill="white"></path><path d="M92.432 31.6081C92.432 13.1201 73.5941 0 46.2194 0C18.8378 0 0 13.1201 0 31.6081C0 50.096 20.1315 62.993 46.2194 62.993C72.3005 62.993 92.432 49.9496 92.432 31.6081ZM46.2194 58.7614C18.3536 58.7614 2.954 46.945 2.954 31.4965C2.954 13.4547 22.2761 1.34547 46.2194 1.34547C70.1628 1.34547 89.4849 13.4477 89.4849 31.4965C89.4849 46.945 74.0853 58.7614 46.2194 58.7614Z" fill="white"></path><path d="M46.2333 3.73633C46.2333 3.73633 46.2264 3.73633 46.2194 3.73633H46.2056C23.7081 3.7433 5.47217 13.5938 5.47217 31.2522C5.47217 31.545 5.49292 31.8378 5.50676 32.1306C5.50676 32.27 5.50676 32.4234 5.52059 32.5628C5.52751 32.6604 5.54135 32.772 5.54827 32.8765C5.56902 33.1066 5.59669 33.3297 5.62437 33.5597C5.9841 36.2019 7.2086 40.6775 11.3041 45.1321L11.3248 45.1112C14.3273 47.9695 19.6542 51.6085 27.9143 52.5287C32.8884 53.0795 36.4996 52.4799 38.8171 51.3994C39.7649 50.9602 40.5397 50.4443 41.1623 49.8936C41.9856 49.2243 42.6013 48.4923 43.051 47.7813C43.9226 46.394 44.2132 45.0903 44.4138 44.5047C44.5038 44.2468 44.5729 43.7449 44.6352 43.0826C44.6352 43.0547 44.6352 43.0338 44.6352 43.0059C44.8912 40.071 44.8981 33.8455 44.8358 28.2057C44.8151 26.3026 44.7874 24.4621 44.7597 22.8378C44.7459 19.8262 44.7044 16.6472 44.7044 16.6472C40.8303 18.2925 30.0312 24.8316 30.0312 24.8316L29.7407 36.5086C29.7407 36.5086 29.7891 43.7797 21.1969 42.7549C21.1969 42.7549 13.3518 42.5876 10.6123 33.2948C10.2802 32.026 10.0934 30.7224 10.0934 29.3769C10.0934 16.5287 25.2647 6.8804 46.2125 6.8804C67.1604 6.8804 82.3316 16.5287 82.3316 29.3769C82.3316 30.7224 82.1518 32.026 81.8128 33.2948C79.0732 42.5876 71.2282 42.7549 71.2282 42.7549C62.6429 43.7727 62.6844 36.5086 62.6844 36.5086L62.3938 24.8316C62.3938 24.8316 51.6224 18.2925 47.7483 16.6472C47.7483 16.6472 47.7068 19.8262 47.693 22.8378C47.6653 24.4621 47.6376 26.3026 47.6169 28.2057C47.5546 33.8455 47.5615 40.071 47.8175 43.0059C47.8175 43.0338 47.8175 43.0547 47.8175 43.0826C47.8798 43.7449 47.9489 44.2398 48.0389 44.5047C48.2395 45.0903 48.5301 46.394 49.4017 47.7813C49.8514 48.4923 50.4602 49.2243 51.2904 49.8936C51.9199 50.4443 52.6947 50.9672 53.6356 51.3994C55.96 52.4799 59.5367 53.0795 64.5107 52.5287C72.7709 51.6085 78.0978 47.9695 81.1002 45.1112L81.114 45.1321C85.2095 40.6844 86.434 36.2019 86.7938 33.5597C86.8214 33.3297 86.8491 33.1066 86.8699 32.8765C86.8768 32.765 86.8906 32.6604 86.8975 32.5628C86.9044 32.4234 86.9044 32.27 86.9114 32.1306C86.9252 31.8378 86.946 31.545 86.946 31.2522C86.946 13.6008 68.71 3.75027 46.2125 3.7433L46.2333 3.73633Z" fill="white"></path></svg>