<svg xmlns="http://www.w3.org/2000/svg" width="399" height="47" viewBox="0 0 399 47" fill="none"><path d="M236.15 19.3654H223.547V12H216.346V34H223.547V26.6345H236.15V34H243.346V12H236.15V19.3654Z" fill="white"></path><path d="M246.346 34H270.346V20.3126H253.558V17.4374H270.346V12H246.346V33.9952V34ZM253.558 25.75H263.133V28.5674H253.558V25.75Z" fill="white"></path><path d="M309.17 15H303.731C303.643 15 303.569 15.0759 303.569 15.1661V21.1941C303.569 21.5786 303.264 21.8871 302.895 21.8871H286.788C286.414 21.8871 286.114 21.5738 286.114 21.1941V15L280.849 18.5978L280.826 18.612C280.535 18.8209 280.346 19.1626 280.346 19.5518V30.5921C280.346 31.024 280.586 31.3989 280.932 31.5936L281.089 31.6648L286.118 34V27.0465C286.118 26.662 286.423 26.3535 286.792 26.3535H302.899C303.273 26.3535 303.574 26.6667 303.574 27.0465V33.7912C303.574 33.9051 303.666 34 303.777 34H307.707C308.612 34 309.346 33.2453 309.346 32.315V15.1709C309.346 15.0759 309.272 15 309.18 15H309.17Z" fill="white"></path><path d="M316.772 15.4936C316.194 15.7167 315.33 16.0252 314.517 16.5236C313.277 17.2878 312.934 17.5488 312.361 18.0852C311.6 18.7924 311.346 19.7559 311.346 20.1451V29.4387C311.346 30.3263 311.637 31.3325 312.337 32.1062C312.971 32.8086 313.544 33.1219 314.611 33.4874C315.879 33.9193 317.218 34 317.218 34H341.337V30.1411H318.059C317.589 30.1032 317.218 29.7092 317.218 29.2203V27.3597C317.218 26.8471 317.627 26.4294 318.134 26.4294H341.341V22.5706H318.064C317.594 22.5326 317.223 22.1386 317.223 21.6498V19.7892C317.223 19.2765 317.632 18.8589 318.139 18.8589H341.346V15H320.145C319.121 15 317.683 15.1424 316.777 15.4936H316.772Z" fill="white"></path><path d="M370.336 15C369.597 15 368.883 15.2516 368.314 15.7121L355.47 26.1142L351.622 29.2334C351.388 29.4138 351.097 29.5277 350.776 29.5277C350.033 29.5277 349.435 28.9485 349.415 28.2269V15.2991C349.415 15.1329 349.279 15 349.109 15H343.516C343.424 15 343.346 15.076 343.346 15.1662V33.7009C343.346 33.8671 343.482 34 343.652 34H349.415V33.9858C349.508 33.9858 349.6 34 349.692 34C350.66 34 351.573 33.7721 352.39 33.3828C352.793 33.1882 353.172 32.9555 353.522 32.6849L353.643 32.5852L375.346 15H370.336Z" fill="white"></path><path d="M37.4915 18.6322H26.2004V12H16.3459V34H26.2004V26.7565H37.4915V34H47.3459V12H37.4915V18.6322Z" fill="white"></path><path d="M176.26 12H166.346V34H194.346V25.8757H176.26V12Z" fill="white"></path><path d="M67.3459 12L72.7103 20.9136L80.5842 34H91.3459L78.1077 12H67.3459Z" fill="white"></path><path d="M54.3459 34H65.2489L72.3459 22.1259L66.8945 13L54.3459 34Z" fill="white"></path><path d="M136.346 12L141.706 20.9136L149.584 34H160.346L147.108 12H136.346Z" fill="white"></path><path d="M122.346 34H133.855L141.346 22.1259L135.592 13L122.346 34Z" fill="white"></path><path d="M115.584 12L107.71 25.0912L102.346 34H113.108L126.346 12H115.584Z" fill="white"></path><path d="M99.2489 12H88.3459L100.894 33L106.346 23.8761L99.2489 12Z" fill="white"></path></svg>